<svg width="17" height="15" viewBox="0 0 17 15" fill="none" xmlns="http://www.w3.org/2000/svg">
<path fill-rule="evenodd" clip-rule="evenodd" d="M0.894737 0C0.657438 0 0.429858 0.109747 0.262062 0.305097C0.0942666 0.500448 0 0.765399 0 1.04167C0 1.31793 0.0942666 1.58289 0.262062 1.77824C0.429858 1.97359 0.657438 2.08333 0.894737 2.08333H16.1053C16.3426 2.08333 16.5701 1.97359 16.7379 1.77824C16.9057 1.58289 17 1.31793 17 1.04167C17 0.765399 16.9057 0.500448 16.7379 0.305097C16.5701 0.109747 16.3426 0 16.1053 0H0.894737ZM0 7.29167C0 7.0154 0.0942666 6.75045 0.262062 6.5551C0.429858 6.35975 0.657438 6.25 0.894737 6.25H16.1053C16.3426 6.25 16.5701 6.35975 16.7379 6.5551C16.9057 6.75045 17 7.0154 17 7.29167C17 7.56793 16.9057 7.83289 16.7379 8.02824C16.5701 8.22359 16.3426 8.33333 16.1053 8.33333H0.894737C0.657438 8.33333 0.429858 8.22359 0.262062 8.02824C0.0942666 7.83289 0 7.56793 0 7.29167ZM0 13.5427C0 13.2664 0.0942666 13.0015 0.262062 12.8061C0.429858 12.6108 0.657438 12.501 0.894737 12.501H16.1053C16.3426 12.501 16.5701 12.6108 16.7379 12.8061C16.9057 13.0015 17 13.2664 17 13.5427C17 13.819 16.9057 14.0839 16.7379 14.2793C16.5701 14.4746 16.3426 14.5844 16.1053 14.5844H0.894737C0.657438 14.5844 0.429858 14.4746 0.262062 14.2793C0.0942666 14.0839 0 13.819 0 13.5427Z" fill="currentcolor" fill-opacity="0.9"/>
</svg>
