<svg width="26" height="26" viewBox="0 0 26 26" fill="none" xmlns="http://www.w3.org/2000/svg">
<path d="M12.8437 0.34375C5.92067 0.34375 0.34375 5.92067 0.34375 12.8437C0.34375 19.7668 5.92067 25.3437 12.8437 25.3437C19.7668 25.3437 25.3437 19.7668 25.3437 12.8437C25.3437 11.4976 25.163 10.1572 24.6822 8.90721L23.1207 10.4399C23.313 11.2091 23.4216 11.9784 23.4216 12.8437C23.4216 18.7091 18.7101 23.4207 12.8447 23.4207C6.97933 23.4207 2.26683 18.7091 2.26683 12.8437C2.26683 6.97837 6.97837 2.26683 12.8437 2.26683C15.7284 2.26683 18.3187 3.4149 20.1457 5.24183L21.4976 3.8899C19.2861 1.67837 16.2091 0.34375 12.8437 0.34375ZM23.6899 4.45913L12.8437 15.3082L8.72837 11.1928L7.34375 12.5745L12.1514 17.3822L12.8437 18.0418L13.5361 17.3812L25.0745 5.84279L23.6899 4.45817V4.45913Z" fill="#7777E9"/>
</svg>
