<svg width="26" height="26" viewBox="0 0 26 26" fill="none" xmlns="http://www.w3.org/2000/svg">
<path d="M3.48785 18.6707C4.4534 18.6707 5.28102 19.0103 5.97071 19.6896C6.67025 20.3691 7.02001 21.1776 7.02001 22.1153C7.02001 23.0529 6.67517 23.8521 5.98549 24.5123C5.2958 25.1629 4.46326 25.4882 3.48785 25.4882C2.47302 25.4882 1.63555 25.1724 0.975428 24.5409C0.325149 23.8999 0 23.0865 0 22.1009C0 21.1442 0.339931 20.3355 1.01975 19.6754C1.6996 19.0056 2.52228 18.6707 3.48785 18.6707Z" fill="#7777E9"/>
<path d="M25.85 23.886C25.95 24.0195 26 24.153 26 24.2865C26 24.4322 25.9438 24.5475 25.8313 24.6325C25.7188 24.7174 25.5626 24.7599 25.3626 24.7599H20.0387C19.8512 24.7599 19.6888 24.7235 19.5513 24.6507C19.4138 24.5778 19.2763 24.4565 19.1389 24.2865L12.5402 15.1836H12.2778V17.8781C12.2778 19.3588 12.0403 20.6515 11.5654 21.7559C11.0905 22.8604 10.4281 23.7282 9.57831 24.3594C8.72848 24.9905 7.75368 25.3668 6.6539 25.4881V0.728232C6.6539 0.242744 6.90385 0 7.40375 0H11.5279C11.6154 0 11.6779 0.00606873 11.7154 0.0182059V0H15.1272C18.3265 0 20.6573 0.673615 22.1195 2.02084C23.5817 3.35594 24.3128 5.26755 24.3128 7.75567C24.3128 12.477 21.5321 14.947 15.9708 15.1654C18.7952 15.8451 21.201 17.5383 23.1881 20.2449L25.85 23.886ZM18.689 7.93773C18.689 6.95462 18.4515 6.22639 17.9766 5.75303C17.5017 5.27968 16.9831 4.99446 16.4207 4.89736C15.8583 4.78813 15.2397 4.73351 14.5648 4.73351H12.2778V11.2512H14.5648C15.2022 11.2512 15.8083 11.1905 16.3832 11.0691C16.9581 10.9478 17.483 10.6443 17.9579 10.1588C18.4453 9.67335 18.689 8.93298 18.689 7.93773Z" fill="#7777E9"/>
</svg>
